<svg width="20" height="20" viewBox="0 0 20 20" fill="none" xmlns="http://www.w3.org/2000/svg">
<mask id="mask0_99195_7490" style="mask-type:alpha" maskUnits="userSpaceOnUse" x="0" y="0" width="20" height="20">
<path d="M19.9697 0H0.0292969V20H19.9697V0Z" fill="white"/>
</mask>
<g mask="url(#mask0_99195_7490)">
<path fill-rule="evenodd" clip-rule="evenodd" d="M19.5714 10.2271C19.5714 9.51813 19.5076 8.83613 19.3899 8.18213H10V12.0501H15.366C15.1347 13.3001 14.4318 14.3591 13.3759 15.0681V17.5771H16.5983C18.4836 15.8361 19.5714 13.2731 19.5714 10.2271Z" fill="#4285F4"/>
<path fill-rule="evenodd" clip-rule="evenodd" d="M9.99981 19.9999C12.6918 19.9999 14.948 19.1049 16.5981 17.5779L13.3757 15.0689C12.4834 15.6689 11.3408 16.0229 9.99981 16.0229C7.40257 16.0229 5.20514 14.2639 4.42049 11.8999H1.08984V14.4909C2.73054 17.7589 6.10246 19.9999 9.99981 19.9999Z" fill="#34A853"/>
<path fill-rule="evenodd" clip-rule="evenodd" d="M4.42117 11.8998C4.22176 11.2998 4.10811 10.6588 4.10811 9.99979C4.10811 9.34079 4.22176 8.69979 4.42117 8.09979V5.50879H1.08973C0.414544 6.85879 0.0292969 8.38579 0.0292969 9.99979C0.0292969 11.6138 0.414544 13.1408 1.08973 14.4908L4.42117 11.8998Z" fill="#FBBC05"/>
<path fill-rule="evenodd" clip-rule="evenodd" d="M9.99981 3.97701C11.4634 3.97701 12.7775 4.48201 13.8104 5.47301L16.6709 2.605C14.944 0.990996 12.6868 0 9.99981 0C6.10246 0 2.73054 2.241 1.08984 5.509L4.42049 8.10001C5.20514 5.73601 7.40257 3.97701 9.99981 3.97701Z" fill="#EA4335"/>
</g>
</svg>
